<?xml version="1.0" encoding="UTF-8"?>
<svg width="16px" height="16px" viewBox="0 0 16 16" version="1.1" xmlns="http://www.w3.org/2000/svg" xmlns:xlink="http://www.w3.org/1999/xlink">
    <!-- Generator: Sketch 63.1 (92452) - https://sketch.com -->
    <title>编组</title>
    <desc>Created with Sketch.</desc>
    <g id="页面-1" stroke="none" stroke-width="1" fill="none" fill-rule="evenodd">
        <g id="管理员—账号管理—结构化账号的下拉框" transform="translate(-20.000000, -65.000000)" fill="#FFFFFF" fill-rule="nonzero">
            <g id="编组" transform="translate(20.000000, 65.000000)">
                <path d="M11.7432171,10.4156416 C10.8739417,10.4156416 10.1678555,11.1228897 10.1678555,11.9901487 C10.2058399,12.8330128 10.9001443,13.4968176 11.7437504,13.4968176 C12.5873566,13.4968176 13.2816609,12.8330128 13.3196453,11.9901487 C13.3172966,11.1207147 12.6125364,10.4168134 11.7432171,10.4156416 L11.7432171,10.4156416 Z M11.7432171,12.7550009 C11.3208579,12.7547061 10.9787069,12.4120314 10.9790012,11.9896153 C10.9792959,11.5671992 11.3219245,11.2250021 11.7442837,11.2252965 C12.1666429,11.2255913 12.508794,11.568266 12.5084996,11.9906821 C12.5082049,12.4130982 12.1655763,12.7552953 11.7432171,12.7550009 L11.7432171,12.7550009 Z M15.9114726,11.1676928 C15.8517432,10.8562049 15.6512232,10.6535245 15.3941737,10.6535245 L15.3589761,10.6535245 C14.8671773,10.6529382 14.468477,10.2546611 14.4673022,9.76279723 C14.4673022,9.63372178 14.5238317,9.47477764 14.5451636,9.42570765 C14.6667227,9.13586433 14.5645237,8.80053476 14.3019799,8.62778671 L13.2588494,8.04961407 C12.997534,7.94345019 12.6981149,8.00300654 12.4973002,8.20109103 C12.3671755,8.33550017 12.0215986,8.61285236 11.7837477,8.61285237 C11.5437637,8.61285237 11.1971202,8.33016648 11.0659289,8.19469059 C10.8671225,7.99419715 10.5678947,7.93165726 10.3054463,8.03574645 L10.2862476,8.04428036 L9.2239184,8.62671997 L9.1983201,8.64272106 C8.95023904,8.81869418 8.85869568,9.14402796 8.97860142,9.42357416 C8.98713418,9.44277546 9.05752949,9.61558722 9.05752949,9.76279723 C9.05752949,10.2534973 8.65648955,10.6535245 8.16478901,10.6535245 L8.12319178,10.6535245 C7.87254182,10.6535245 7.67202186,10.8562049 7.61229251,11.1687595 C7.56135163,11.44195 7.53210674,11.7187439 7.52483167,11.9965491 C7.52483167,12.3453728 7.60375974,12.7752688 7.61229251,12.8243388 C7.67202186,13.1358266 7.87254183,13.3385071 8.12959135,13.3385071 L8.16478901,13.3385071 C8.65648955,13.3385071 9.05752949,13.7385343 9.05752949,14.230301 C9.05752949,14.3583097 9.00099993,14.5172539 8.97966802,14.5673906 C8.85873953,14.8564628 8.95984702,15.1906994 9.22071861,15.3642448 L10.2446503,15.9349503 C10.5093096,16.0452402 10.8145459,15.9812168 11.0125992,15.7738727 C11.1384574,15.6373301 11.4968335,15.3375763 11.7410839,15.3375763 C11.9885341,15.3375763 12.3426438,15.63733 12.4749017,15.7824066 C12.6781804,15.9984858 12.9966573,16.0607303 13.2663156,15.9370838 L14.3009133,15.3653116 L14.3265116,15.3493105 C14.5744238,15.1737067 14.6659854,14.8487526 14.5462302,14.5695241 C14.5387641,14.5503228 14.4673022,14.377511 14.4673022,14.230301 C14.4673022,13.7385343 14.8683421,13.3385071 15.3589761,13.3385071 L15.4016399,13.3385071 C15.6522899,13.3385071 15.8528098,13.1358266 15.9114726,12.8254055 C15.9114726,12.8211385 16,12.3635074 16,11.9965491 C16,11.6477254 15.9210719,11.2167628 15.9125392,11.1676928 L15.9114726,11.1676928 Z M15.134991,12.5416529 C14.2876403,12.6530494 13.6542287,13.3755463 13.6545564,14.230301 C13.6545564,14.4287145 13.7025532,14.6175274 13.7441504,14.7455361 L12.9975335,15.1583641 C12.9013576,15.0635352 12.7987179,14.9754955 12.690354,14.8948796 C12.3597093,14.6505963 12.0397307,14.5257878 11.7400173,14.5257878 C11.4413706,14.5257878 11.1245917,14.6484628 10.7971469,14.8884791 C10.6904873,14.9674178 10.5870275,15.0538237 10.4910339,15.1455633 L9.77748149,14.7466028 C9.82014532,14.6185941 9.86814212,14.4287145 9.86814212,14.230301 C9.86814212,13.3683757 9.22818478,12.651527 8.38770749,12.5416529 C8.35806166,12.3617123 8.34095493,12.1799287 8.3365109,11.9976159 C8.3365109,11.8162702 8.36637558,11.5901215 8.38770749,11.4514454 C9.23482172,11.3396064 9.86800035,10.6173753 9.86814212,9.76279723 C9.86814212,9.56545048 9.82014532,9.37557089 9.77854809,9.24756219 L10.5496967,8.82406673 C10.6158256,8.88807109 10.7235518,8.98301087 10.854743,9.07688393 C11.1789881,9.3072996 11.490434,9.4246409 11.7826812,9.4246409 C12.070662,9.4246409 12.3799747,9.30943307 12.7020865,9.08328436 C12.8332778,8.99154479 12.9388707,8.89873848 13.0060663,8.8368676 L13.745217,9.24649546 C13.7025531,9.37450417 13.6545563,9.56331701 13.6545564,9.76279723 C13.6545564,10.6236558 14.2945137,11.3415713 15.134991,11.4514454 C15.1563229,11.592255 15.1861876,11.8184037 15.1861876,11.9965491 C15.1861876,12.1746946 15.1573895,12.3997765 15.134991,12.5405861 L15.134991,12.5416529 Z M1.05379642,14.8468763 L1.05379642,13.9550823 C1.05379642,10.9223428 3.39390708,8.42297279 6.37610825,8.14135364 L6.37504167,8.14135364 L6.38250783,8.14135364 C6.56489567,8.12321907 6.75048329,8.11361842 6.93713752,8.11361842 L7.02246516,8.11575189 C7.68055462,8.06454841 8.67888806,7.90987122 9.20045331,7.44370619 L9.45643624,7.24635945 C10.4452931,6.48383743 11.02447,5.30562508 11.0243317,4.0568092 C11.0243317,1.81985708 9.18978734,0 6.93713752,0 C4.68235451,0 2.84781015,1.81985708 2.84781015,4.0568092 C2.84781015,5.30489408 3.41950536,6.46763982 4.41570562,7.24635945 L4.67168855,7.44477294 L4.3709086,7.56424772 C1.71721885,8.61818606 0,11.1260899 0,13.9550823 L0,15.3695785 C0,15.6575981 0.235717614,15.891214 0.526898201,15.891214 L8.22345177,15.891214 C7.97177995,15.5687294 7.75811711,15.2183038 7.58669422,14.8468763 L1.05379642,14.8468763 Z M3.90160656,4.0568092 C3.90267315,2.39589626 5.26471569,1.04540442 6.93820412,1.04540442 C8.61062596,1.04540442 9.97266848,2.396963 9.97266848,4.05787595 C9.97266848,5.71985564 8.61062596,7.0714142 6.93820412,7.0714142 C5.26364909,7.0714142 3.90373975,5.71985562 3.90373975,4.05787595 L3.90160656,4.0568092 Z" id="形状"></path>
            </g>
        </g>
    </g>
</svg>