<?xml version="1.0" encoding="UTF-8"?>
<svg width="16px" height="15px" viewBox="0 0 16 15" version="1.1" xmlns="http://www.w3.org/2000/svg" xmlns:xlink="http://www.w3.org/1999/xlink">
    <!-- Generator: Sketch 63.1 (92452) - https://sketch.com -->
    <title>合并形状</title>
    <desc>Created with Sketch.</desc>
    <g id="页面-1" stroke="none" stroke-width="1" fill="none" fill-rule="evenodd">
        <g id="资产结构化检查-标注详情页—已标注" transform="translate(-20.000000, -163.000000)" fill="#FFFFFF" fill-rule="nonzero">
            <path d="M28,163 L30.3271366,164.35 L30.3276636,165.760683 C32.5586829,166.725657 34.1207211,168.954539 34.1207211,171.55 C34.1207211,171.974377 34.0789606,172.388953 33.9993434,172.789806 L36,173.95 L36,176.65 L33.6728634,178 L31.4491327,176.709841 C30.4306082,177.428288 29.1896748,177.85 27.8507141,177.85 C26.5711773,177.85 25.3811598,177.464889 24.389207,176.803732 L22.3271366,178 L20,176.65 L20,173.95 L21.7346724,172.943772 C21.6338996,172.495424 21.5807072,172.028954 21.5807072,171.55 C21.5807072,168.840051 23.2835903,166.529735 25.6728292,165.640441 L25.6728634,164.35 L28,163 Z M25.6723909,166.611986 C23.7895856,167.451766 22.4764224,169.346797 22.4764224,171.55 C22.4764224,171.968343 22.5237676,172.375576 22.6133677,172.766583 L24.6542731,173.95 L24.6540155,175.891294 C25.5474085,176.556547 26.6533322,176.95 27.8507141,176.95 C29.1855015,176.95 30.4066356,176.461065 31.346397,175.651716 L31.3457269,173.95 L33.0372452,172.970049 C33.1596683,172.517561 33.2250058,172.041447 33.2250058,171.55 C33.2250058,169.46533 32.0493395,167.656565 30.3278629,166.756575 L30.3271366,167.05 L28,168.4 L25.6728634,167.05 L25.6723909,166.611986 Z M28.7524008,168.982 L29.2838586,169.006 L29.2838586,169.696 L30.5199457,169.696 L30.5199457,170.248 L30.2333168,170.92 L29.7317162,170.776 L29.9586307,170.26 L29.2838586,170.26 L29.2838586,171.22 L30.2333168,171.22 L30.2333168,171.772 C30.0482023,172.348 29.8571163,172.804 29.522716,173.236 C29.8272592,173.494 30.2154025,173.716 30.7408888,173.932 L30.4602313,174.472 C29.9108593,174.202 29.4868874,173.944 29.1465156,173.638 C28.8360009,173.926 28.4418862,174.202 27.8925142,174.496 L27.5999138,173.998 C27.5222852,174.154 27.4267422,174.31 27.3252278,174.472 L26.8594559,174.172 C26.9490274,174.046 27.0147132,173.926 27.080399,173.812 L25.8084833,173.812 L25.8084833,172.174 C25.7189118,172.324 25.6293402,172.468 25.5337973,172.606 L25.2232826,172.168 C25.5755973,171.586 25.9517977,170.776 26.1249693,169.972 L25.4860258,169.972 L25.4860258,169.408 L27.3371707,169.408 L27.3371707,169.972 L26.6564271,169.972 C26.572827,170.35 26.4713126,170.704 26.3518839,171.034 L27.1580276,171.034 L27.1580276,173.674 C27.492428,173.014 27.5401995,172.456 27.5401995,171.274 L27.5401995,169.696 L28.7524008,169.696 L28.7524008,168.982 Z M28.4538291,171.796 L28.0716572,171.796 C28.0537429,172.702 27.9820857,173.254 27.6178281,173.956 C28.1194287,173.716 28.4836863,173.488 28.7643437,173.248 C28.4777148,172.894 28.2687146,172.498 28.1015144,171.97 L28.4538291,171.796 Z M26.6922557,171.622 L26.2742552,171.622 L26.2742552,173.26 L26.6922557,173.26 L26.6922557,171.622 Z M29.6481161,171.796 L28.6150578,171.796 C28.7583723,172.228 28.919601,172.558 29.1405441,172.846 C29.3794015,172.534 29.522716,172.198 29.6481161,171.796 Z M28.7524008,170.26 L28.0716572,170.26 L28.0716572,171.22 L28.7524008,171.22 L28.7524008,170.26 Z" id="合并形状"></path>
        </g>
    </g>
</svg>