<?xml version="1.0" encoding="UTF-8"?>
<svg width="15px" height="15px" viewBox="0 0 15 15" version="1.1" xmlns="http://www.w3.org/2000/svg" xmlns:xlink="http://www.w3.org/1999/xlink">
    <!-- Generator: Sketch 63.1 (92452) - https://sketch.com -->
    <title>编组</title>
    <desc>Created with Sketch.</desc>
    <g id="页面-1" stroke="none" stroke-width="1" fill="none" fill-rule="evenodd">
        <g id="检查人员-查看详情页" transform="translate(-21.000000, -115.000000)" fill="#FFFFFF" fill-rule="nonzero">
            <g id="编组" transform="translate(21.000000, 115.000000)">
                <path d="M10.8566381,5.61119128 L10.8603702,5.6074592 L10.2147193,4.78080215 C10.1643362,4.71549064 10.071034,4.70429439 10.0057225,4.75467755 L9.06523686,5.48803244 L7.74967655,3.80672771 C7.69929339,3.7414162 7.60599124,3.73021994 7.54067974,3.78060311 L6.83344944,4.33481787 C6.76813794,4.38520104 6.75694168,4.47850318 6.80732484,4.54381469 L8.12288515,6.22698547 L8.11915307,6.22885151 L8.76480394,7.05550856 C8.8151871,7.12082006 8.90848925,7.13201632 8.97380076,7.08163316 L9.91428643,6.34827826 L11.11042,7.87843352 C11.1608031,7.94374502 11.2541053,7.95494128 11.3194168,7.90455812 L12.0266471,7.35220939 C12.0919586,7.30182623 12.1031549,7.20852408 12.0527717,7.14321258 L10.8566381,5.61119128 L10.8566381,5.61119128 Z" id="路径"></path>
                <path d="M9.27423368,0 C6.14114749,0 3.60146298,2.53968451 3.60146298,5.6727707 C3.60146298,6.98459893 4.04744725,8.19192874 4.79386445,9.15294088 L0.0615794188,13.8852259 C0.00373208599,13.9430732 0.00373208599,14.0382414 0.0615794188,14.0960888 L0.850915605,14.885425 C0.908762938,14.9432723 1.00393113,14.9432723 1.06177846,14.885425 L5.7940635,10.1531399 C6.75507564,10.8995571 7.96240545,11.3455414 9.27423368,11.3455414 C12.4073199,11.3455414 14.9470044,8.80585689 14.9470044,5.6727707 C14.9470044,2.53968451 12.4073199,0 9.27423368,0 Z M12.282295,8.68083201 C11.4798965,9.48509654 10.4106539,9.92734873 9.27423368,9.92734873 C8.1378135,9.92734873 7.06857086,9.48509654 6.26617237,8.68083201 C5.46190784,7.87843352 5.01965565,6.80919088 5.01965565,5.6727707 C5.01965565,4.53635052 5.46190784,3.46710788 6.26617237,2.66470939 C7.06857086,1.86044486 8.1378135,1.41819268 9.27423368,1.41819268 C10.4106539,1.41819268 11.4798965,1.86044486 12.282295,2.66470939 C13.0865595,3.46710788 13.5288117,4.53635052 13.5288117,5.6727707 C13.5288117,6.80919088 13.0865595,7.87843352 12.282295,8.68083201 Z" id="形状"></path>
            </g>
        </g>
    </g>
</svg>