<?xml version="1.0" encoding="UTF-8"?>
<svg width="16px" height="16px" viewBox="0 0 16 16" version="1.1" xmlns="http://www.w3.org/2000/svg" xmlns:xlink="http://www.w3.org/1999/xlink">
    <!-- Generator: Sketch 63.1 (92452) - https://sketch.com -->
    <title>合并形状</title>
    <desc>Created with Sketch.</desc>
    <g id="页面-1" stroke="none" stroke-width="1" fill="none" fill-rule="evenodd">
        <g id="资产结构化检查-标注详情页—待标注多户" transform="translate(-20.000000, -115.000000)" fill="#FFFFFF">
            <path d="M26.3312362,116.966731 L26.3312362,120.892646 C24.9640248,121.329245 23.9801737,122.546342 23.9801737,123.979496 C23.9801737,125.779519 25.5321066,127.238662 27.4464751,127.238662 C28.472565,127.238662 29.3944205,126.819359 30.0291695,126.153067 L30.0291695,126.153067 L34,127.407683 C32.7109399,129.533485 30.2782223,130.966731 27.4894925,130.966731 C23.3531133,130.966731 20,127.813809 20,123.92459 C20,120.405807 22.7449339,117.490357 26.3312362,116.966731 L26.3312362,116.966731 Z M27.8445798,120.966731 L27.8445798,121.507132 C28.1113452,121.541045 28.3618759,121.630945 28.5429479,121.78847 C28.942026,122.135707 28.9945083,122.602062 28.9995381,122.774714 L28.9990872,122.842684 L28.3576327,122.858236 C28.3576327,122.300075 27.9015857,122.0675 27.5503262,122.0675 C27.1991589,122.0675 26.8040842,122.269072 26.8040842,122.703219 C26.8040842,123.137266 27.0036048,123.245828 27.217423,123.35439 C27.4311489,123.462951 27.7447734,123.571413 28.0012999,123.617968 C28.2579186,123.664423 28.9999174,123.990008 28.9999174,124.93566 C28.9999174,125.881513 28.3719303,126.12954 28.3719303,126.12954 C28.2054326,126.218336 28.0276812,126.279139 27.8445798,126.310242 L27.8445798,126.310242 L27.8445798,126.966731 L27.217423,126.966731 L27.217423,126.302015 C26.9086873,126.242216 26.6257795,126.103152 26.4049509,125.912517 C25.9203087,125.493921 26.0058175,124.858202 26.0058175,124.858202 L26.0058175,124.858202 L26.618769,124.858202 C26.618769,125.540477 27.1461195,125.788403 27.5503262,125.788403 C27.9546252,125.788403 28.4147308,125.509373 28.4147308,124.982216 C28.4147308,124.455159 27.9870945,124.222584 27.5779067,124.129574 C27.1688112,124.036463 26.6471797,123.834992 26.3336474,123.431948 C26.0201151,123.028804 26.1341268,122.145058 26.5759685,121.78847 C26.7327808,121.661948 26.9632026,121.570844 27.217423,121.524992 L27.217423,121.524992 L27.217423,120.966731 L27.8445798,120.966731 Z M27.3518719,115 C32.0891531,115 35.9294344,118.87052 35.9294344,123.645102 C35.9294344,124.793512 35.7070594,125.889386 35.3036531,126.891906 L35.3036531,126.891906 L30.2608406,125.184031 C30.4618406,124.751276 30.5745281,124.268252 30.5745281,123.758866 C30.5745281,121.900283 29.0794969,120.393575 27.2355281,120.393575 C27.1789031,120.393575 27.1227469,120.395087 27.0668719,120.397827 L27.0668719,120.397827 L27.0668719,115.005291 C27.1615594,115.002079 27.2564344,115 27.3518719,115 Z" id="合并形状"></path>
        </g>
    </g>
</svg>