<?xml version="1.0" encoding="UTF-8"?>
<svg width="16px" height="16px" viewBox="0 0 16 16" version="1.1" xmlns="http://www.w3.org/2000/svg" xmlns:xlink="http://www.w3.org/1999/xlink">
    <!-- Generator: Sketch 63.1 (92452) - https://sketch.com -->
    <title>编组</title>
    <desc>Created with Sketch.</desc>
    <g id="页面-1" stroke="none" stroke-width="1" fill="none" fill-rule="evenodd">
        <g id="资产结构化检查-标注详情页—已标注" transform="translate(-20.000000, -211.000000)" fill="#FFFFFF" fill-rule="nonzero">
            <g id="编组" transform="translate(20.000000, 211.000000)">
                <path d="M8,0 C3.581722,0 0,3.581722 0,8 C0,12.418278 3.581722,16 8,16 C12.418278,16 16,12.418278 16,8 C15.9950202,3.58378636 12.4162136,0.00497982947 8,0 Z M14.9819689,7.13235233 L11.9244767,7.13235233 C11.7798908,4.94949011 10.9720717,2.86285308 9.60911917,1.15166839 C12.4722128,1.82940808 14.61379,4.21326334 14.9819689,7.13235233 Z M6.39088083,1.15166839 C5.02788196,2.86282647 4.22005703,4.94947856 4.07552332,7.13235233 L1.01803109,7.13235233 C1.38618717,4.2132529 3.52777436,1.82938647 6.39088083,1.15166839 Z M0.966051813,8.0961658 L4.05305699,8.0961658 C4.09335748,10.597989 5.00912709,13.0065812 6.64116062,14.9032124 C3.38078407,14.2566389 1.01556982,11.4196671 0.966051813,8.0961658 L0.966051813,8.0961658 Z M7.51809326,11.0839378 L7.51809326,14.4348187 C4.17684806,10.6984001 4.17684806,5.04792116 7.51809326,1.31150259 L7.51809326,4.91548187 L8.48190674,4.91548187 L8.48190674,1.31133679 C10.1000435,3.11412321 10.9928505,5.45251026 10.9879937,7.87498446 C10.9961307,10.2969184 10.1028262,12.6352489 8.48190674,14.4348187 L8.48190674,11.0839378 L7.51809326,11.0839378 Z M9.35850777,14.9030466 C10.9905352,13.0064118 11.9063039,10.5978218 11.9466114,8.096 L15.0336166,8.096 C14.9842087,11.4194619 12.6191444,14.2564888 9.35883938,14.9032124 L9.35850777,14.9030466 Z" id="形状"></path>
                <path d="M9.41175787,8.79724823 C9.41392227,9.48131898 8.90188284,10.0493176 8.24226198,10.094547 L8.24226198,10.3529412 L7.7643066,10.3529412 L7.7643066,10.094547 C7.43914076,10.098106 7.12924118,9.95204436 6.91840282,9.69585626 C6.69642586,9.42745103 6.57893496,9.08315926 6.58881097,8.73003022 L6.58881097,8.64016942 L7.37979708,8.64016942 C7.37611538,8.6661902 7.37427989,8.69245503 7.37430532,8.71875323 C7.37430532,9.16059844 7.50430575,9.40582134 7.7643066,9.45442195 L7.7643066,8.37103099 C7.0062711,8.15022678 6.62725334,7.73655927 6.62725334,7.13002845 C6.62590641,6.81480681 6.74876598,6.51263168 6.96748549,6.29322192 C7.17049437,6.05983922 7.45535481,5.92028666 7.7584716,5.90571941 L7.7584716,5.64705882 L8.23634117,5.64705882 L8.23634117,5.90536423 C8.53751482,5.92454236 8.81859205,6.06821224 9.01634374,6.30405495 C9.22633332,6.54314332 9.33857003,6.85716513 9.32946029,7.18010897 L9.32946029,7.21935648 L8.53298241,7.21935648 L8.53298241,7.1571998 C8.53298241,6.80533378 8.434102,6.59941758 8.23634117,6.53945118 L8.23634117,7.59567079 C8.54978605,7.67260324 8.83905893,7.83107578 9.07675318,8.05607421 C9.28337294,8.24401288 9.40480171,8.5126709 9.41175787,8.79724823 L9.41175787,8.79724823 Z M7.75838579,7.51699819 L7.75838579,6.54557805 C7.57286476,6.6414771 7.4605062,6.84264197 7.47281389,7.05686115 L7.47281389,7.07373225 C7.47664669,7.24948767 7.57183732,7.39724298 7.75838579,7.51699819 L7.75838579,7.51699819 Z M8.56035544,8.92653413 C8.56035544,8.71697732 8.45232208,8.55975051 8.23625536,8.45485372 L8.23625536,9.46001605 C8.45232208,9.38519124 8.56035544,9.20736394 8.56035544,8.92653413 Z" id="形状"></path>
            </g>
        </g>
    </g>
</svg>