<?xml version="1.0" encoding="UTF-8"?>
<svg width="12px" height="12px" viewBox="0 0 12 12" version="1.1" xmlns="http://www.w3.org/2000/svg" xmlns:xlink="http://www.w3.org/1999/xlink">
    <!-- Generator: Sketch 63.1 (92452) - https://sketch.com -->
    <title>编组</title>
    <desc>Created with Sketch.</desc>
    <g id="页面-1" stroke="none" stroke-width="1" fill="none" fill-rule="evenodd">
        <g id="附件展示" transform="translate(-783.000000, -737.000000)" fill="#016AA9" fill-rule="nonzero">
            <g id="编组" transform="translate(789.000000, 743.000000) scale(-1, 1) rotate(-90.000000) translate(-789.000000, -743.000000) translate(783.000000, 737.000000)">
                <path d="M6.38626301,5.6921875 L2.13174962,0.5953125 C2.08175534,0.534375 2.00343097,0.5 1.92177364,0.5 L0.633587646,0.5 C0.52193375,0.5 0.460274135,0.6203125 0.528599654,0.7015625 L4.95142712,6 L0.528599654,11.2984375 C0.460274135,11.3796875 0.52193375,11.5 0.633587646,11.5 L1.92177364,11.5 C2.00343097,11.5 2.08175534,11.4640625 2.13174962,11.4046875 L6.38626301,6.309375 C6.53791233,6.1265625 6.53791233,5.8734375 6.38626301,5.6921875 Z" id="路径"></path>
                <path d="M11.386263,5.6921875 L7.13174962,0.5953125 C7.08175534,0.534375 7.00343097,0.5 6.92177364,0.5 L5.63358765,0.5 C5.52193375,0.5 5.46027414,0.6203125 5.52859965,0.7015625 L9.95142712,6 L5.52859965,11.2984375 C5.46027414,11.3796875 5.52193375,11.5 5.63358765,11.5 L6.92177364,11.5 C7.00343097,11.5 7.08175534,11.4640625 7.13174962,11.4046875 L11.386263,6.309375 C11.5379123,6.1265625 11.5379123,5.8734375 11.386263,5.6921875 Z" id="路径"></path>
            </g>
        </g>
    </g>
</svg>