<?xml version="1.0" encoding="UTF-8"?>
<svg width="14px" height="17px" viewBox="0 0 14 17" version="1.1" xmlns="http://www.w3.org/2000/svg" xmlns:xlink="http://www.w3.org/1999/xlink">
    <!-- Generator: Sketch 63.1 (92452) - https://sketch.com -->
    <title>编组</title>
    <desc>Created with Sketch.</desc>
    <g id="页面-1" stroke="none" stroke-width="1" fill="none" fill-rule="evenodd">
        <g id="资产结构化检查-标注详情页—待标注多户" transform="translate(-22.000000, -66.000000)" fill="#FFFFFF" fill-rule="nonzero">
            <g id="编组" transform="translate(22.000000, 66.000000)">
                <path d="M10.2666667,4.73846154 L10.2666667,3.87692308 C10.2666667,3.79794872 10.1994667,3.73333333 10.1173333,3.73333333 L2.94933333,3.73333333 C2.8672,3.73333333 2.8,3.79794872 2.8,3.87692308 L2.8,4.73846154 C2.8,4.8174359 2.8672,4.88205128 2.94933333,4.88205128 L10.1173333,4.88205128 C10.1994667,4.88205128 10.2666667,4.8174359 10.2666667,4.73846154 Z M2.94933333,6.31794872 C2.8672,6.31794872 2.8,6.3825641 2.8,6.46153846 L2.8,7.32307692 C2.8,7.40205128 2.8672,7.46666667 2.94933333,7.46666667 L6.384,7.46666667 C6.46613333,7.46666667 6.53333333,7.40205128 6.53333333,7.32307692 L6.53333333,6.46153846 C6.53333333,6.3825641 6.46613333,6.31794872 6.384,6.31794872 L2.94933333,6.31794872 Z" id="形状"></path>
                <path d="M5.64242424,15.3735849 L1.33636364,15.3735849 L1.33636364,1.42641509 L11.730303,1.42641509 L11.730303,8.24150943 C11.730303,8.32867925 11.7971212,8.4 11.8787879,8.4 L12.9181818,8.4 C12.9998485,8.4 13.0666667,8.32867925 13.0666667,8.24150943 L13.0666667,0.633962264 C13.0666667,0.283301887 12.80125,0 12.4727273,0 L0.593939394,0 C0.265416667,0 0,0.283301887 0,0.633962264 L0,16.1660377 C0,16.5166981 0.265416667,16.8 0.593939394,16.8 L5.64242424,16.8 C5.72409091,16.8 5.79090909,16.7286792 5.79090909,16.6415094 L5.79090909,15.5320755 C5.79090909,15.4449057 5.72409091,15.3735849 5.64242424,15.3735849 Z" id="路径"></path>
                <path d="M13.9578666,15.91 L12.2670954,14.044 C12.6712133,13.454 12.9122343,12.718 12.9122343,11.92 C12.9122343,9.976 11.4842303,8.4 9.72278381,8.4 C7.9613373,8.4 6.53333333,9.976 6.53333333,11.92 C6.53333333,13.864 7.9613373,15.44 9.72278381,15.44 C10.371547,15.44 10.9731934,15.226 11.4769816,14.86 L13.1931234,16.754 C13.2221184,16.786 13.2583622,16.8 13.2946059,16.8 C13.3308497,16.8 13.3689056,16.784 13.3960884,16.754 L13.9578666,16.134 C14.0140445,16.072 14.0140445,15.972 13.9578666,15.91 Z M9.72278381,14.16 C8.60103958,14.16 7.69313351,13.158 7.69313351,11.92 C7.69313351,10.682 8.60103958,9.68 9.72278381,9.68 C10.844528,9.68 11.7524341,10.682 11.7524341,11.92 C11.7524341,13.158 10.844528,14.16 9.72278381,14.16 Z" id="形状"></path>
            </g>
        </g>
    </g>
</svg>